<svg width="70" height="87" viewBox="0 0 70 87" fill="none" xmlns="http://www.w3.org/2000/svg">
<path d="M63.177 9.38807C57.9859 6.72138 51.3375 4.39885 45.2755 1.79183C45.0775 1.70533 44.9391 1.64565 44.8622 1.65537C42.0629 0.5787 39.0328 -0.00196378 35.8777 4.9899e-06C34.2723 4.9899e-06 32.7554 0.0846621 31.3172 0.24807C27.9256 0.634563 24.9706 1.48052 22.4308 2.75517C17.0264 4.98517 11.3662 7.05398 6.82304 9.38807C3.63339 11.0261 3.33919 14.0869 3.55452 15.3885C4.13137 18.8877 6.52305 28.0624 7.01524 29.889C7.43435 31.4482 9.1628 32.6172 11.2488 32.894C12.4332 39.233 15.4536 44.8181 19.7026 48.8749C21.8733 50.9437 24.3668 52.6144 27.097 53.768C29.8253 54.9216 32.7918 55.556 35.8776 55.5542C39.3922 55.5562 42.7509 54.7312 45.783 53.2566C50.3338 51.0418 54.1522 47.3753 56.8323 42.8129C58.6607 39.7022 59.9624 36.1664 60.6064 32.3731C61.8062 31.8309 62.7002 30.9503 62.9847 29.889C63.4769 28.0624 65.8687 18.8877 66.4454 15.3885C66.6609 14.0869 66.3667 11.0261 63.177 9.38807ZM50.5954 44.2798C48.6824 46.4793 46.4194 48.2423 43.9316 49.4516C41.4437 50.6629 38.7348 51.3243 35.8777 51.3243C33.3706 51.3243 30.975 50.8129 28.7429 49.8707C26.5127 48.9287 24.4458 47.552 22.6213 45.814H22.6233C22.1003 45.3179 21.6023 44.7872 21.1236 44.2317C21.1351 44.2432 21.1485 44.2567 21.1621 44.2682C31.8864 38.7503 41.242 28.1547 40.5653 16.1921C40.2345 10.3877 37.6544 6.65395 34.5763 4.25266C35.0031 4.23925 35.4338 4.22953 35.8779 4.22953C38.7829 4.2315 41.5304 4.80638 44.026 5.87333C45.0257 6.30018 45.9832 6.80776 46.8964 7.38842C47.6732 9.50718 48.673 12.3661 49.9111 16.2209C48.1653 27.3799 52.1759 31.8846 56.2193 32.7805C55.2732 37.2295 53.2852 41.1882 50.5954 44.2798Z" fill="white"/>
<path d="M36.3353 37.8775C33.2034 37.8775 30.6636 39.9424 30.6636 42.4918C30.6636 45.0412 33.2034 47.1061 36.3353 47.1061C39.4673 47.1061 42.0071 45.0412 42.0071 42.4918C42.0071 39.9424 39.4673 37.8775 36.3353 37.8775Z" fill="white"/>
<path d="M5.75 82.5542H1.97955V70.336H5.91705C7.10227 70.336 8.11648 70.5806 8.95966 71.0698C9.80284 71.5551 10.4491 72.2531 10.8986 73.1639C11.348 74.0707 11.5727 75.1565 11.5727 76.4212C11.5727 77.694 11.346 78.7897 10.8926 79.7085C10.4392 80.6232 9.77898 81.3272 8.91193 81.8204C8.04489 82.3096 6.99091 82.5542 5.75 82.5542ZM3.45909 81.2417H5.65455C6.66477 81.2417 7.50199 81.0468 8.16619 80.657C8.8304 80.2673 9.32557 79.7124 9.6517 78.9926C9.97784 78.2727 10.1409 77.4156 10.1409 76.4212C10.1409 75.4349 9.97983 74.5857 9.65767 73.8738C9.33551 73.1579 8.85426 72.609 8.21392 72.2272C7.57358 71.8414 6.77614 71.6485 5.82159 71.6485H3.45909V81.2417ZM17.5864 82.7451C16.7591 82.7451 16.0332 82.5482 15.4088 82.1545C14.7884 81.7607 14.3031 81.2099 13.9531 80.5019C13.6071 79.794 13.4341 78.9667 13.4341 78.0201C13.4341 77.0656 13.6071 76.2323 13.9531 75.5204C14.3031 74.8085 14.7884 74.2556 15.4088 73.8619C16.0332 73.4681 16.7591 73.2712 17.5864 73.2712C18.4136 73.2712 19.1375 73.4681 19.758 73.8619C20.3824 74.2556 20.8676 74.8085 21.2136 75.5204C21.5636 76.2323 21.7386 77.0656 21.7386 78.0201C21.7386 78.9667 21.5636 79.794 21.2136 80.5019C20.8676 81.2099 20.3824 81.7607 19.758 82.1545C19.1375 82.5482 18.4136 82.7451 17.5864 82.7451ZM17.5864 81.4803C18.2148 81.4803 18.7318 81.3193 19.1375 80.9971C19.5432 80.6749 19.8435 80.2514 20.0384 79.7264C20.2332 79.2014 20.3307 78.6326 20.3307 78.0201C20.3307 77.4076 20.2332 76.8369 20.0384 76.3079C19.8435 75.7789 19.5432 75.3514 19.1375 75.0252C18.7318 74.6991 18.2148 74.536 17.5864 74.536C16.958 74.536 16.4409 74.6991 16.0352 75.0252C15.6295 75.3514 15.3293 75.7789 15.1344 76.3079C14.9395 76.8369 14.842 77.4076 14.842 78.0201C14.842 78.6326 14.9395 79.2014 15.1344 79.7264C15.3293 80.2514 15.6295 80.6749 16.0352 80.9971C16.4409 81.3193 16.958 81.4803 17.5864 81.4803ZM27.5867 86.1815C26.9066 86.1815 26.3219 86.094 25.8327 85.919C25.3435 85.7479 24.9359 85.5212 24.6097 85.2389C24.2876 84.9604 24.031 84.6622 23.8401 84.344L24.9617 83.5565C25.089 83.7235 25.2501 83.9144 25.445 84.1292C25.6398 84.3479 25.9063 84.5369 26.2444 84.696C26.5864 84.859 27.0339 84.9406 27.5867 84.9406C28.3265 84.9406 28.937 84.7616 29.4183 84.4036C29.8995 84.0457 30.1401 83.4849 30.1401 82.7212V80.8599H30.0208C29.9174 81.0269 29.7702 81.2337 29.5793 81.4803C29.3924 81.7229 29.1219 81.9397 28.768 82.1306C28.418 82.3176 27.9447 82.411 27.3481 82.411C26.6083 82.411 25.9441 82.236 25.3555 81.886C24.7708 81.536 24.3075 81.0269 23.9654 80.3587C23.6273 79.6906 23.4583 78.8792 23.4583 77.9247C23.4583 76.986 23.6234 76.1687 23.9535 75.4727C24.2836 74.7727 24.743 74.2318 25.3316 73.8499C25.9202 73.4641 26.6004 73.2712 27.3719 73.2712C27.9685 73.2712 28.4418 73.3707 28.7918 73.5695C29.1458 73.7644 29.4163 73.9872 29.6032 74.2377C29.7941 74.4843 29.9413 74.6872 30.0447 74.8462H30.1879V73.3906H31.5481V82.8167C31.5481 83.6042 31.3691 84.2445 31.0112 84.7377C30.6572 85.2349 30.1799 85.5988 29.5793 85.8295C28.9827 86.0641 28.3185 86.1815 27.5867 86.1815ZM27.539 81.1462C28.1038 81.1462 28.581 81.017 28.9708 80.7585C29.3606 80.4999 29.6569 80.1281 29.8597 79.6428C30.0626 79.1576 30.164 78.5769 30.164 77.9008C30.164 77.2406 30.0646 76.6579 29.8657 76.1528C29.6668 75.6477 29.3725 75.2519 28.9827 74.9656C28.593 74.6792 28.1117 74.536 27.539 74.536C26.9424 74.536 26.4452 74.6872 26.0475 74.9894C25.6538 75.2917 25.3575 75.6974 25.1586 76.2065C24.9637 76.7156 24.8663 77.2803 24.8663 77.9008C24.8663 78.5372 24.9657 79.0999 25.1646 79.5891C25.3674 80.0744 25.6657 80.4562 26.0594 80.7346C26.4572 81.009 26.9504 81.1462 27.539 81.1462ZM39.5424 82.5542H37.9913L42.4776 70.336H44.0049L48.4913 82.5542H46.9401L43.289 72.269H43.1935L39.5424 82.5542ZM40.1151 77.7815H46.3674V79.094H40.1151V77.7815ZM50.2035 85.9906V73.3906H51.5637V74.8462H51.7307C51.8342 74.6872 51.9773 74.4843 52.1603 74.2377C52.3472 73.9872 52.6137 73.7644 52.9597 73.5695C53.3097 73.3707 53.783 73.2712 54.3796 73.2712C55.1512 73.2712 55.8313 73.4641 56.42 73.8499C57.0086 74.2357 57.468 74.7826 57.7981 75.4906C58.1282 76.1985 58.2932 77.0337 58.2932 77.9962C58.2932 78.9667 58.1282 79.8079 57.7981 80.5198C57.468 81.2278 57.0106 81.7766 56.4259 82.1664C55.8413 82.5522 55.1671 82.7451 54.4035 82.7451C53.8148 82.7451 53.3435 82.6477 52.9896 82.4528C52.6356 82.2539 52.3631 82.0292 52.1722 81.7786C51.9813 81.5241 51.8342 81.3133 51.7307 81.1462H51.6114V85.9906H50.2035ZM51.5876 77.9724C51.5876 78.6644 51.689 79.2749 51.8918 79.8039C52.0947 80.3289 52.391 80.7406 52.7807 81.0389C53.1705 81.3332 53.6478 81.4803 54.2126 81.4803C54.8012 81.4803 55.2924 81.3252 55.6861 81.015C56.0839 80.7008 56.3822 80.2792 56.581 79.7502C56.7839 79.2173 56.8853 78.6247 56.8853 77.9724C56.8853 77.3281 56.7859 76.7474 56.587 76.2303C56.3921 75.7093 56.0958 75.2977 55.6981 74.9954C55.3043 74.6891 54.8092 74.536 54.2126 74.536C53.6398 74.536 53.1586 74.6812 52.7688 74.9715C52.379 75.2579 52.0847 75.6596 51.8859 76.1766C51.687 76.6897 51.5876 77.2883 51.5876 77.9724ZM60.441 85.9906V73.3906H61.8012V74.8462H61.9682C62.0717 74.6872 62.2148 74.4843 62.3978 74.2377C62.5847 73.9872 62.8512 73.7644 63.1972 73.5695C63.5472 73.3707 64.0205 73.2712 64.6171 73.2712C65.3887 73.2712 66.0688 73.4641 66.6575 73.8499C67.2461 74.2357 67.7055 74.7826 68.0356 75.4906C68.3657 76.1985 68.5307 77.0337 68.5307 77.9962C68.5307 78.9667 68.3657 79.8079 68.0356 80.5198C67.7055 81.2278 67.2481 81.7766 66.6634 82.1664C66.0788 82.5522 65.4046 82.7451 64.641 82.7451C64.0523 82.7451 63.581 82.6477 63.2271 82.4528C62.8731 82.2539 62.6006 82.0292 62.4097 81.7786C62.2188 81.5241 62.0717 81.3133 61.9682 81.1462H61.8489V85.9906H60.441ZM61.8251 77.9724C61.8251 78.6644 61.9265 79.2749 62.1293 79.8039C62.3322 80.3289 62.6285 80.7406 63.0182 81.0389C63.408 81.3332 63.8853 81.4803 64.4501 81.4803C65.0387 81.4803 65.5299 81.3252 65.9236 81.015C66.3214 80.7008 66.6197 80.2792 66.8185 79.7502C67.0214 79.2173 67.1228 78.6247 67.1228 77.9724C67.1228 77.3281 67.0234 76.7474 66.8245 76.2303C66.6296 75.7093 66.3333 75.2977 65.9356 74.9954C65.5418 74.6891 65.0467 74.536 64.4501 74.536C63.8773 74.536 63.3961 74.6812 63.0063 74.9715C62.6165 75.2579 62.3222 75.6596 62.1234 76.1766C61.9245 76.6897 61.8251 77.2883 61.8251 77.9724Z" fill="white"/>
</svg>
